<svg width="198" height="27" viewBox="0 0 198 27" fill="none" xmlns="http://www.w3.org/2000/svg">
<g clipPath="url(#clip0_284_258)">
<g clipPath="url(#clip1_284_258)">
<path d="M18.67 0H8.00142C3.58236 0 0 3.58236 0 8.00142V18.67C0 23.089 3.58236 26.6714 8.00142 26.6714H18.67C23.089 26.6714 26.6714 23.089 26.6714 18.67V8.00142C26.6714 3.58236 23.089 0 18.67 0Z" fill="#333333"/>
</g>
<g clipPath="url(#clip2_284_258)">
<path d="M13.334 4.86914C12.8849 4.86914 12.4542 5.04755 12.1366 5.36513C11.819 5.68271 11.6406 6.11344 11.6406 6.56256C11.6403 6.83957 11.7084 7.11237 11.8388 7.35678L19.0358 20.9041C19.18 21.1756 19.3953 21.4027 19.6587 21.5612C19.9221 21.7196 20.2237 21.8033 20.5311 21.8034C20.9802 21.8034 21.4109 21.6249 21.7285 21.3074C22.0461 20.9898 22.2245 20.5591 22.2245 20.1099C22.2248 19.8329 22.1568 19.5601 22.0264 19.3157L14.8293 5.76835C14.6852 5.49687 14.4698 5.26975 14.2064 5.11134C13.943 4.95293 13.6414 4.8692 13.334 4.86914Z" fill="white"/>
<path d="M13.4296 15.875H13.24C12.9326 15.8751 12.631 15.9588 12.3676 16.1172C12.1042 16.2756 11.8888 16.5027 11.7447 16.7742C11.6077 17.0322 11.5397 17.3213 11.5475 17.6133C11.5552 17.9054 11.6384 18.1905 11.7889 18.4408C11.9394 18.6912 12.1521 18.8984 12.4064 19.0423C12.6607 19.1861 12.9478 19.2618 13.24 19.2618H13.4296C13.7218 19.2618 14.0089 19.1861 14.2632 19.0423C14.5175 18.8984 14.7302 18.6912 14.8807 18.4408C15.0312 18.1905 15.1144 17.9054 15.1221 17.6133C15.1299 17.3213 15.0619 17.0322 14.9249 16.7742C14.7808 16.5027 14.5654 16.2756 14.302 16.1172C14.0386 15.9588 13.737 15.8751 13.4296 15.875Z" fill="white"/>
<path d="M8.96337 11.1808L4.64346 19.3093C4.51226 19.5552 4.44417 19.8298 4.44533 20.1086C4.44533 20.5577 4.62374 20.9884 4.94132 21.306C5.2589 21.6236 5.68962 21.802 6.13875 21.802C6.44613 21.8019 6.7477 21.7182 7.01112 21.5598C7.27454 21.4014 7.48988 21.1742 7.63404 20.9028L11.9556 12.7743C12.0855 12.5298 12.1534 12.2571 12.1534 11.9801C12.1534 11.7032 12.0855 11.4305 11.9556 11.1859C11.812 10.9139 11.597 10.6861 11.3337 10.5271C11.0703 10.368 10.7687 10.2837 10.461 10.2832C10.1534 10.2827 9.85146 10.366 9.5876 10.5241C9.32374 10.6823 9.10794 10.9093 8.96337 11.1808Z" fill="white"/>
</g>
</g>
<path d="M34.19 24.0691C33.6567 24.0691 33.2167 23.9157 32.87 23.6091C32.5233 23.3024 32.35 22.8624 32.35 22.2891V10.8591C32.35 10.2924 32.5233 9.85906 32.87 9.55906C33.2167 9.26573 33.6567 9.11906 34.19 9.11906C34.7233 9.11906 35.1667 9.26573 35.52 9.55906C35.88 9.85906 36.06 10.2924 36.06 10.8591V22.2891C36.06 22.8624 35.88 23.3024 35.52 23.6091C35.1667 23.9157 34.7233 24.0691 34.19 24.0691ZM34.19 6.47906C33.5167 6.47906 32.9833 6.29573 32.59 5.92906C32.1967 5.56906 32 5.0924 32 4.49906C32 3.90573 32.1967 3.4324 32.59 3.07906C32.9833 2.71906 33.5167 2.53906 34.19 2.53906C34.8433 2.53906 35.37 2.71906 35.77 3.07906C36.1767 3.4324 36.38 3.90573 36.38 4.49906C36.38 5.0924 36.1833 5.56906 35.79 5.92906C35.3967 6.29573 34.8633 6.47906 34.19 6.47906Z" fill="#333333"/>
<path d="M49.6461 21.3095C50.6328 21.3695 51.1261 21.8161 51.1261 22.6495C51.1261 23.1228 50.9361 23.4828 50.5561 23.7295C50.1694 23.9761 49.6194 24.0795 48.9061 24.0395L48.1061 23.9795C44.7928 23.7395 43.1361 21.9628 43.1361 18.6495V12.1995H41.6561C41.1228 12.1995 40.7128 12.0795 40.4261 11.8395C40.1394 11.6061 39.9961 11.2595 39.9961 10.7995C39.9961 10.3461 40.1394 10.0028 40.4261 9.76945C40.7128 9.52945 41.1228 9.40945 41.6561 9.40945H43.1361V6.68945C43.1361 6.15612 43.3028 5.73279 43.6361 5.41945C43.9761 5.09945 44.4328 4.93945 45.0061 4.93945C45.5528 4.93945 45.9961 5.09945 46.3361 5.41945C46.6694 5.73279 46.8361 6.15612 46.8361 6.68945V9.40945H49.3561C49.8894 9.40945 50.2994 9.52945 50.5861 9.76945C50.8728 10.0028 51.0161 10.3461 51.0161 10.7995C51.0161 11.2595 50.8728 11.6061 50.5861 11.8395C50.2994 12.0795 49.8894 12.1995 49.3561 12.1995H46.8361V18.9195C46.8361 20.3795 47.5061 21.1595 48.8461 21.2595L49.6461 21.3095Z" fill="#333333"/>
<path d="M63.4661 9.05914C66.8594 9.05914 68.5561 11.0425 68.5561 15.0091V22.2891C68.5561 22.8425 68.3961 23.2758 68.0761 23.5891C67.7494 23.9091 67.2994 24.0691 66.7261 24.0691C66.1528 24.0691 65.6994 23.9091 65.3661 23.5891C65.0261 23.2758 64.8561 22.8425 64.8561 22.2891V15.0091C64.8561 13.9625 64.6461 13.1958 64.2261 12.7091C63.7994 12.2291 63.1328 11.9891 62.2261 11.9891C61.1594 11.9891 60.3061 12.3258 59.6661 12.9991C59.0261 13.6658 58.7061 14.5625 58.7061 15.6891V22.2891C58.7061 22.8425 58.5361 23.2758 58.1961 23.5891C57.8628 23.9091 57.4094 24.0691 56.8361 24.0691C56.2628 24.0691 55.8128 23.9091 55.4861 23.5891C55.1594 23.2758 54.9961 22.8425 54.9961 22.2891V4.58914C54.9961 4.07581 55.1694 3.65914 55.5161 3.33914C55.8628 3.02581 56.3128 2.86914 56.8661 2.86914C57.4194 2.86914 57.8628 3.01581 58.1961 3.30914C58.5361 3.60914 58.7061 4.01581 58.7061 4.52914V11.4291C59.1994 10.6558 59.8528 10.0658 60.6661 9.65914C61.4861 9.25914 62.4194 9.05914 63.4661 9.05914Z" fill="#333333"/>
<path d="M84.2539 19.9205C84.5872 19.9205 84.8606 20.0505 85.0739 20.3105C85.2806 20.5639 85.3839 20.9072 85.3839 21.3405C85.3839 21.9539 85.0172 22.4672 84.2839 22.8805C83.6106 23.2605 82.8506 23.5639 82.0039 23.7905C81.1572 24.0172 80.3472 24.1305 79.5739 24.1305C77.2472 24.1305 75.4039 23.4572 74.0439 22.1105C72.6839 20.7705 72.0039 18.9372 72.0039 16.6105C72.0039 15.1305 72.2972 13.8172 72.8839 12.6705C73.4772 11.5239 74.3106 10.6372 75.3839 10.0105C76.4639 9.37721 77.6839 9.06055 79.0439 9.06055C80.3506 9.06055 81.4872 9.34721 82.4539 9.92055C83.4206 10.4872 84.1706 11.2939 84.7039 12.3405C85.2372 13.3872 85.5039 14.6205 85.5039 16.0405C85.5039 16.8939 85.1272 17.3205 84.3739 17.3205H75.6439C75.7572 18.6805 76.1406 19.6805 76.7939 20.3205C77.4472 20.9605 78.3939 21.2805 79.6339 21.2805C80.2672 21.2805 80.8272 21.2039 81.3139 21.0505C81.7939 20.8905 82.3406 20.6739 82.9539 20.4005C83.5472 20.0805 83.9806 19.9205 84.2539 19.9205ZM79.1339 11.6605C78.1272 11.6605 77.3239 11.9772 76.7239 12.6105C76.1172 13.2439 75.7572 14.1505 75.6439 15.3305H82.3339C82.2939 14.1305 81.9972 13.2205 81.4439 12.6005C80.8906 11.9739 80.1206 11.6605 79.1339 11.6605Z" fill="#333333"/>
<path d="M106.196 9.06055C107.776 9.06055 108.986 9.52721 109.826 10.4605C110.666 11.4005 111.086 12.9172 111.086 15.0105V22.2905C111.086 22.8639 110.913 23.3039 110.566 23.6105C110.219 23.9172 109.769 24.0705 109.216 24.0705C108.689 24.0705 108.253 23.9172 107.906 23.6105C107.559 23.3039 107.386 22.8639 107.386 22.2905V15.0105C107.386 13.9239 107.193 13.1472 106.806 12.6805C106.419 12.2205 105.833 11.9905 105.046 11.9905C104.079 11.9905 103.309 12.3205 102.736 12.9805C102.163 13.6405 101.876 14.5439 101.876 15.6905V22.2905C101.876 22.8639 101.703 23.3039 101.356 23.6105C101.016 23.9172 100.579 24.0705 100.046 24.0705C99.5128 24.0705 99.0661 23.9172 98.7061 23.6105C98.3528 23.3039 98.1761 22.8639 98.1761 22.2905V15.0105C98.1761 13.9239 97.9828 13.1472 97.5961 12.6805C97.2161 12.2205 96.6294 11.9905 95.8361 11.9905C94.8694 11.9905 94.1061 12.3205 93.5461 12.9805C92.9794 13.6405 92.6961 14.5439 92.6961 15.6905V22.2905C92.6961 22.8639 92.5194 23.3039 92.1661 23.6105C91.8128 23.9172 91.3694 24.0705 90.8361 24.0705C90.3028 24.0705 89.8628 23.9172 89.5161 23.6105C89.1694 23.3039 88.9961 22.8639 88.9961 22.2905V10.8305C88.9961 10.2839 89.1761 9.86055 89.5361 9.56055C89.8894 9.26721 90.3328 9.12055 90.8661 9.12055C91.3794 9.12055 91.7994 9.26388 92.1261 9.55055C92.4528 9.83721 92.6161 10.2439 92.6161 10.7705V11.4905C93.0694 10.6972 93.6761 10.0939 94.4361 9.68055C95.1961 9.26721 96.0694 9.06055 97.0561 9.06055C99.2228 9.06055 100.673 9.96721 101.406 11.7805C101.839 10.9539 102.479 10.2939 103.326 9.80055C104.179 9.30721 105.136 9.06055 106.196 9.06055Z" fill="#333333"/>
<path d="M127.254 19.9205C127.587 19.9205 127.861 20.0505 128.074 20.3105C128.281 20.5639 128.384 20.9072 128.384 21.3405C128.384 21.9539 128.017 22.4672 127.284 22.8805C126.611 23.2605 125.851 23.5639 125.004 23.7905C124.157 24.0172 123.347 24.1305 122.574 24.1305C120.247 24.1305 118.404 23.4572 117.044 22.1105C115.684 20.7705 115.004 18.9372 115.004 16.6105C115.004 15.1305 115.297 13.8172 115.884 12.6705C116.477 11.5239 117.311 10.6372 118.384 10.0105C119.464 9.37721 120.684 9.06055 122.044 9.06055C123.351 9.06055 124.487 9.34721 125.454 9.92055C126.421 10.4872 127.171 11.2939 127.704 12.3405C128.237 13.3872 128.504 14.6205 128.504 16.0405C128.504 16.8939 128.127 17.3205 127.374 17.3205H118.644C118.757 18.6805 119.141 19.6805 119.794 20.3205C120.447 20.9605 121.394 21.2805 122.634 21.2805C123.267 21.2805 123.827 21.2039 124.314 21.0505C124.794 20.8905 125.341 20.6739 125.954 20.4005C126.547 20.0805 126.981 19.9205 127.254 19.9205ZM122.134 11.6605C121.127 11.6605 120.324 11.9772 119.724 12.6105C119.117 13.2439 118.757 14.1505 118.644 15.3305H125.334C125.294 14.1305 124.997 13.2205 124.444 12.6005C123.891 11.9739 123.121 11.6605 122.134 11.6605Z" fill="#333333"/>
<path d="M139.226 24.1305C137.786 24.1305 136.516 23.8239 135.416 23.2105C134.323 22.5972 133.479 21.7272 132.886 20.6005C132.293 19.4805 131.996 18.1705 131.996 16.6705C131.996 15.1705 132.309 13.8405 132.936 12.6805C133.556 11.5272 134.429 10.6372 135.556 10.0105C136.683 9.37721 137.976 9.06055 139.436 9.06055C140.203 9.06055 140.976 9.16721 141.756 9.38055C142.536 9.60055 143.223 9.89721 143.816 10.2705C144.443 10.6839 144.756 11.2072 144.756 11.8405C144.756 12.2739 144.653 12.6239 144.446 12.8905C144.239 13.1572 143.969 13.2905 143.636 13.2905C143.416 13.2905 143.189 13.2405 142.956 13.1405C142.716 13.0472 142.479 12.9305 142.246 12.7905C141.813 12.5305 141.396 12.3272 140.996 12.1805C140.603 12.0339 140.149 11.9605 139.636 11.9605C138.416 11.9605 137.476 12.3605 136.816 13.1605C136.149 13.9605 135.816 15.1105 135.816 16.6105C135.816 18.0905 136.149 19.2305 136.816 20.0305C137.476 20.8305 138.416 21.2305 139.636 21.2305C140.129 21.2305 140.569 21.1539 140.956 21.0005C141.343 20.8539 141.773 20.6539 142.246 20.4005C142.539 20.2205 142.796 20.0872 143.016 20.0005C143.229 19.9072 143.446 19.8605 143.666 19.8605C143.979 19.8605 144.246 20.0005 144.466 20.2805C144.679 20.5539 144.786 20.8972 144.786 21.3105C144.786 21.6505 144.713 21.9439 144.566 22.1905C144.419 22.4372 144.179 22.6572 143.846 22.8505C143.233 23.2505 142.523 23.5639 141.716 23.7905C140.903 24.0172 140.073 24.1305 139.226 24.1305Z" fill="#333333"/>
<path d="M155.404 24.1305C153.924 24.1305 152.624 23.8239 151.504 23.2105C150.391 22.5972 149.527 21.7172 148.914 20.5705C148.307 19.4305 148.004 18.1005 148.004 16.5805C148.004 15.0605 148.307 13.7339 148.914 12.6005C149.527 11.4605 150.391 10.5872 151.504 9.98055C152.624 9.36721 153.924 9.06055 155.404 9.06055C156.884 9.06055 158.181 9.36721 159.294 9.98055C160.407 10.5872 161.267 11.4605 161.874 12.6005C162.474 13.7339 162.774 15.0605 162.774 16.5805C162.774 18.1005 162.474 19.4305 161.874 20.5705C161.267 21.7172 160.407 22.5972 159.294 23.2105C158.181 23.8239 156.884 24.1305 155.404 24.1305ZM155.374 21.2605C156.574 21.2605 157.491 20.8639 158.124 20.0705C158.757 19.2839 159.074 18.1205 159.074 16.5805C159.074 15.0605 158.757 13.9005 158.124 13.1005C157.491 12.3005 156.584 11.9005 155.404 11.9005C154.217 11.9005 153.304 12.3005 152.664 13.1005C152.024 13.9005 151.704 15.0605 151.704 16.5805C151.704 18.1205 152.017 19.2839 152.644 20.0705C153.277 20.8639 154.187 21.2605 155.374 21.2605Z" fill="#333333"/>
<path d="M178.874 2.86914C179.427 2.86914 179.884 3.02581 180.244 3.33914C180.597 3.65914 180.774 4.07581 180.774 4.58914V22.2891C180.774 22.8225 180.604 23.2458 180.264 23.5591C179.931 23.8791 179.487 24.0391 178.934 24.0391C178.381 24.0391 177.937 23.8791 177.604 23.5591C177.271 23.2458 177.104 22.8225 177.104 22.2891V21.5491C176.671 22.3558 176.044 22.9891 175.224 23.4491C174.404 23.9025 173.471 24.1291 172.424 24.1291C171.177 24.1291 170.067 23.8125 169.094 23.1791C168.114 22.5458 167.354 21.6525 166.814 20.4991C166.274 19.3458 166.004 18.0191 166.004 16.5191C166.004 15.0191 166.274 13.7058 166.814 12.5791C167.354 11.4525 168.107 10.5858 169.074 9.97914C170.041 9.36581 171.157 9.05914 172.424 9.05914C173.471 9.05914 174.397 9.27581 175.204 9.70914C176.017 10.1425 176.641 10.7525 177.074 11.5391V4.52914C177.074 4.03581 177.237 3.63581 177.564 3.32914C177.884 3.02247 178.321 2.86914 178.874 2.86914ZM173.404 21.2591C174.584 21.2591 175.494 20.8525 176.134 20.0391C176.781 19.2325 177.104 18.0791 177.104 16.5791C177.104 15.0791 176.781 13.9291 176.134 13.1291C175.494 12.3291 174.594 11.9291 173.434 11.9291C172.247 11.9291 171.327 12.3225 170.674 13.1091C170.027 13.9025 169.704 15.0391 169.704 16.5191C169.704 18.0191 170.027 19.1825 170.674 20.0091C171.327 20.8425 172.237 21.2591 173.404 21.2591Z" fill="#333333"/>
<path d="M196.254 19.9205C196.587 19.9205 196.861 20.0505 197.074 20.3105C197.281 20.5639 197.384 20.9072 197.384 21.3405C197.384 21.9539 197.017 22.4672 196.284 22.8805C195.611 23.2605 194.851 23.5639 194.004 23.7905C193.157 24.0172 192.347 24.1305 191.574 24.1305C189.247 24.1305 187.404 23.4572 186.044 22.1105C184.684 20.7705 184.004 18.9372 184.004 16.6105C184.004 15.1305 184.297 13.8172 184.884 12.6705C185.477 11.5239 186.311 10.6372 187.384 10.0105C188.464 9.37721 189.684 9.06055 191.044 9.06055C192.351 9.06055 193.487 9.34721 194.454 9.92055C195.421 10.4872 196.171 11.2939 196.704 12.3405C197.237 13.3872 197.504 14.6205 197.504 16.0405C197.504 16.8939 197.127 17.3205 196.374 17.3205H187.644C187.757 18.6805 188.141 19.6805 188.794 20.3205C189.447 20.9605 190.394 21.2805 191.634 21.2805C192.267 21.2805 192.827 21.2039 193.314 21.0505C193.794 20.8905 194.341 20.6739 194.954 20.4005C195.547 20.0805 195.981 19.9205 196.254 19.9205ZM191.134 11.6605C190.127 11.6605 189.324 11.9772 188.724 12.6105C188.117 13.2439 187.757 14.1505 187.644 15.3305H194.334C194.294 14.1305 193.997 13.2205 193.444 12.6005C192.891 11.9739 192.121 11.6605 191.134 11.6605Z" fill="#333333"/>
<defs>
<clipPath id="clip0_284_258">
<rect width="26.6714" height="26.6714" fill="white"/>
</clipPath>
<clipPath id="clip1_284_258">
<rect width="26.6714" height="26.6714" fill="white"/>
</clipPath>
<clipPath id="clip2_284_258">
<rect width="17.7809" height="17.7809" fill="white" transform="translate(4.44531 4.44531)"/>
</clipPath>
</defs>
</svg>
