<svg width="27" height="27" viewBox="0 0 27 27" fill="none" xmlns="http://www.w3.org/2000/svg">
<mask id="mask0_346_56" style="mask-type:luminance" maskUnits="userSpaceOnUse" x="0" y="0" width="27" height="27">
<path d="M26.6714 0H0V26.6714H26.6714V0Z" fill="white"/>
</mask>
<g mask="url(#mask0_346_56)">
<mask id="mask1_346_56" style="mask-type:luminance" maskUnits="userSpaceOnUse" x="0" y="0" width="27" height="27">
<path d="M26.6714 0H0V26.6714H26.6714V0Z" fill="white"/>
</mask>
<g mask="url(#mask1_346_56)">
<path d="M18.67 0H8.00142C3.58236 0 0 3.58236 0 8.00142V18.67C0 23.089 3.58236 26.6714 8.00142 26.6714H18.67C23.089 26.6714 26.6714 23.089 26.6714 18.67V8.00142C26.6714 3.58236 23.089 0 18.67 0Z" fill="#333333"/>
</g>
<mask id="mask2_346_56" style="mask-type:luminance" maskUnits="userSpaceOnUse" x="4" y="4" width="19" height="19">
<path d="M22.2262 4.44531H4.44531V22.2262H22.2262V4.44531Z" fill="white"/>
</mask>
<g mask="url(#mask2_346_56)">
<path d="M13.334 4.86914C12.8849 4.86914 12.4542 5.04755 12.1366 5.36513C11.819 5.68271 11.6406 6.11344 11.6406 6.56256C11.6403 6.83957 11.7084 7.11237 11.8388 7.35678L19.0358 20.9041C19.18 21.1756 19.3953 21.4027 19.6587 21.5612C19.9221 21.7196 20.2237 21.8033 20.5311 21.8034C20.9802 21.8034 21.4109 21.6249 21.7285 21.3074C22.0461 20.9898 22.2245 20.5591 22.2245 20.1099C22.2248 19.8329 22.1568 19.5601 22.0264 19.3157L14.8293 5.76835C14.6852 5.49687 14.4698 5.26975 14.2064 5.11134C13.943 4.95293 13.6414 4.8692 13.334 4.86914Z" fill="white"/>
<path d="M13.4296 15.875H13.24C12.9326 15.8751 12.631 15.9588 12.3676 16.1172C12.1042 16.2756 11.8888 16.5027 11.7447 16.7742C11.6077 17.0322 11.5397 17.3213 11.5475 17.6133C11.5552 17.9054 11.6384 18.1905 11.7889 18.4408C11.9394 18.6912 12.1521 18.8984 12.4064 19.0423C12.6607 19.1861 12.9478 19.2618 13.24 19.2618H13.4296C13.7218 19.2618 14.0089 19.1861 14.2632 19.0423C14.5175 18.8984 14.7302 18.6912 14.8807 18.4408C15.0312 18.1905 15.1144 17.9054 15.1221 17.6133C15.1299 17.3213 15.0619 17.0322 14.9249 16.7742C14.7808 16.5027 14.5654 16.2756 14.302 16.1172C14.0386 15.9588 13.737 15.8751 13.4296 15.875Z" fill="white"/>
<path d="M8.96337 11.1808L4.64346 19.3093C4.51226 19.5552 4.44417 19.8298 4.44533 20.1086C4.44533 20.5577 4.62374 20.9884 4.94132 21.306C5.2589 21.6236 5.68962 21.802 6.13875 21.802C6.44613 21.8019 6.7477 21.7182 7.01112 21.5598C7.27454 21.4014 7.48988 21.1742 7.63404 20.9028L11.9556 12.7743C12.0855 12.5298 12.1534 12.2571 12.1534 11.9801C12.1534 11.7032 12.0855 11.4305 11.9556 11.1859C11.812 10.9139 11.597 10.6861 11.3337 10.5271C11.0703 10.368 10.7687 10.2837 10.461 10.2832C10.1534 10.2827 9.85146 10.366 9.5876 10.5241C9.32374 10.6823 9.10794 10.9093 8.96337 11.1808Z" fill="white"/>
</g>
</g>
</svg>
